<svg width="512" height="512" viewBox="0 0 512 512" fill="none" xmlns="http://www.w3.org/2000/svg">

  <!-- Background Circle -->
  <circle cx="256" cy="256" r="240" fill="#1E1B4B"/>

  <!-- Open Book Shape -->
  <path d="M140 170
           C190 150, 230 150, 256 180
           C282 150, 322 150, 372 170
           L372 350
           C322 330, 282 330, 256 360
           C230 330, 190 330, 140 350
           Z"
        fill="#FFFFFF" opacity="0.95"/>

  <!-- Center Spine Line -->
  <line x1="256" y1="180" x2="256" y2="360"
        stroke="#6366F1" stroke-width="6" opacity="0.6"/>

  <!-- Page Flow Accent -->
  <path d="M200 220 C230 200, 282 200, 312 220"
        stroke="#6366F1" stroke-width="6" stroke-linecap="round"/>

  <path d="M200 260 C230 240, 282 240, 312 260"
        stroke="#6366F1" stroke-width="6" stroke-linecap="round"/>

  <path d="M200 300 C230 280, 282 280, 312 300"
        stroke="#6366F1" stroke-width="6" stroke-linecap="round"/>

</svg>